# xmcd CD database file
#
# Track frame offsets:
#	150
#	21852
#	40624
#	55123
#	84303
#	99910
#	117929
#	142804
#	166928
#	188455
#	205450
#	227342
#	245416
#	262895
#	274659
#
# Disc length: 3890 seconds
#
# Revision: 0
# Processed by: cddbd v1.4PL0 Copyright (c) Steve Scherf et al.
# Submitted via: CDex 1.40Beta9
#
DISCID=b10f300f
DTITLE=John Lee Hooker - Chill Out
DYEAR=1995
DGENRE=Blues
TTITLE0=Chill Out (Things Gonna Change)
TTITLE1=Deep Blue Sea
TTITLE2=Kiddio
TTITLE3=Meddley: Surves Me Right To Suffer - Syndicator
TTITLE4=One Bourbon, One Scotch, One Beer
TTITLE5=Tupelo
TTITLE6=Woman On My Mind
TTITLE7=Annie Mae
TTITLE8=Too Young
TTITLE9=Talkin' The Blues
TTITLE10=If You've Never Been In Love
TTITLE11=We'll Meet Again
TTITLE12=#13
TTITLE13=#14
TTITLE14=#15
EXTD=YEAR: 1995 ID3G: 0
EXTT0=
EXTT1=
EXTT2=
EXTT3=
EXTT4=
EXTT5=
EXTT6=
EXTT7=
EXTT8=
EXTT9=
EXTT10=
EXTT11=
EXTT12=
EXTT13=
EXTT14=
PLAYORDER=
